<?xml version="1.0" encoding="utf-8"?>
<!-- Generator: Adobe Illustrator 25.4.2, SVG Export Plug-In . SVG Version: 6.00 Build 0)  -->
<svg version="1.1" id="Layer_1" xmlns="http://www.w3.org/2000/svg" xmlns:xlink="http://www.w3.org/1999/xlink" x="0px" y="0px"
	 viewBox="0 0 880.9 558.6" style="enable-background:new 0 0 880.9 558.6;" xml:space="preserve">
<style type="text/css">
	.st0{fill:#283177;}
	.st1{fill-rule:evenodd;clip-rule:evenodd;fill:#283177;}
</style>
<g>
	<g>
		<path class="st0" d="M195.8,238.4h6.7v49.8h-6.7V238.4z"/>
		<path class="st0" d="M260,289.8l-38.5-39.1l1.9,0.5l0.1,37h-6.7v-51.4h0.3l38.1,39.2l-1.6-0.3l-0.1-37.4h6.6v51.4H260z"/>
		<path class="st0" d="M270.9,238.4H304v6.4h-13.4v43.4h-6.7v-43.4h-13V238.4z"/>
		<path class="st0" d="M314.6,238.4H347v6.4h-25.7V260h23v6.4h-23v15.4H348v6.4h-33.4V238.4z"/>
		<path class="st0" d="M372.8,238.4c2.5,0,4.9,0.3,7,1c2.1,0.7,4,1.7,5.6,3c1.6,1.3,2.8,2.9,3.7,4.8c0.9,1.9,1.3,4.1,1.3,6.7
			c0,2-0.3,3.9-0.9,5.8c-0.6,1.9-1.5,3.6-2.9,5.1c-1.3,1.5-3.1,2.8-5.2,3.7c-2.1,0.9-4.8,1.4-7.9,1.4h-7.4v18.3h-6.7v-49.8H372.8z
			 M373.5,263.5c2,0,3.6-0.3,4.9-0.9c1.3-0.6,2.3-1.4,3.1-2.3c0.7-0.9,1.3-2,1.6-3.1c0.3-1.1,0.5-2.1,0.5-3.1c0-1-0.2-2.1-0.5-3.1
			c-0.3-1.1-0.9-2.1-1.7-3s-1.7-1.7-3-2.3c-1.2-0.6-2.7-0.9-4.4-0.9h-7.7v18.7H373.5z M381.7,267.3l13,21H387l-13.2-20.8
			L381.7,267.3z"/>
		<path class="st0" d="M448.1,289.8l-38.5-39.1l1.9,0.5l0.1,37H405v-51.4h0.3l38.1,39.2l-1.6-0.3l-0.1-37.4h6.6v51.4H448.1z"/>
		<path class="st0" d="M457.7,288.2l21.8-51.9h0.4l21.7,51.9H494l-16.3-41.4l4.8-3.1l-18.2,44.5H457.7z M470.5,269.3H489l2.2,5.8
			h-22.7L470.5,269.3z"/>
		<path class="st0" d="M503.5,238.4h33.1v6.4h-13.4v43.4h-6.7v-43.4h-13V238.4z"/>
		<path class="st0" d="M547.2,238.4h6.7v49.8h-6.7V238.4z"/>
		<path class="st0" d="M565.1,263.3c0-3.4,0.7-6.7,2-9.8c1.3-3.1,3.1-5.8,5.5-8.1c2.3-2.4,5-4.2,8.1-5.6c3.1-1.4,6.4-2,9.9-2
			c3.5,0,6.8,0.7,9.8,2c3.1,1.4,5.8,3.2,8.1,5.6s4.2,5.1,5.6,8.1s2,6.3,2,9.8c0,3.5-0.7,6.8-2,9.9c-1.3,3.1-3.2,5.8-5.6,8.1
			c-2.4,2.3-5.1,4.1-8.1,5.4s-6.3,2-9.8,2c-3.5,0-6.8-0.6-9.9-1.9c-3.1-1.3-5.8-3.1-8.1-5.4c-2.3-2.3-4.2-5-5.5-8.1
			C565.8,270.3,565.1,267,565.1,263.3z M572,263.4c0,2.6,0.5,5.1,1.4,7.3s2.3,4.3,4,6c1.7,1.7,3.7,3.1,5.9,4.1
			c2.3,1,4.7,1.5,7.3,1.5c2.6,0,5-0.5,7.2-1.5c2.3-1,4.2-2.4,5.9-4.1c1.7-1.7,3-3.8,3.9-6s1.4-4.7,1.4-7.4c0-2.6-0.5-5.1-1.4-7.4
			c-1-2.3-2.3-4.4-4-6.1c-1.7-1.7-3.7-3.1-5.9-4.1c-2.3-1-4.7-1.5-7.2-1.5c-2.6,0-5.1,0.5-7.3,1.5c-2.3,1-4.2,2.4-5.9,4.1
			c-1.7,1.7-3,3.8-3.9,6.1C572.5,258.3,572,260.8,572,263.4z"/>
		<path class="st0" d="M670.4,289.8l-38.5-39.1l1.9,0.5l0.1,37h-6.7v-51.4h0.3l38.1,39.2l-1.6-0.3l-0.1-37.4h6.6v51.4H670.4z"/>
		<path class="st0" d="M680,288.2l21.8-51.9h0.4l21.7,51.9h-7.7L700,246.8l4.8-3.1l-18.2,44.5H680z M692.8,269.3h18.5l2.2,5.8h-22.7
			L692.8,269.3z"/>
		<path class="st0" d="M733.3,238.4h6.7v43.4h25.3v6.4h-32V238.4z"/>
	</g>
	<g>
		<path class="st0" d="M217.4,315v26.8h-3.6v-11.8h-14v11.8h-3.6V315h3.6v11.6h14V315H217.4z"/>
		<path class="st0" d="M225.1,315h17.4v3.4h-13.8v8.2H241v3.4h-12.3v8.3H243v3.4h-17.9V315z"/>
		<path class="st0" d="M246.6,341.8l11.7-27.9h0.2l11.7,27.9h-4.1l-8.7-22.3l2.6-1.7l-9.8,23.9H246.6z M253.4,331.7h10l1.2,3.1
			h-12.2L253.4,331.7z"/>
		<path class="st0" d="M275.2,315h3.6v23.4h13.6v3.4h-17.2V315z"/>
		<path class="st0" d="M293.2,315H311v3.4h-7.2v23.4h-3.6v-23.4h-7V315z"/>
		<path class="st0" d="M337.9,315v26.8h-3.6v-11.8h-14.1v11.8h-3.6V315h3.6v11.6h14.1V315H337.9z"/>
		<path class="st0" d="M365.3,339.8c-0.4,0.3-1,0.6-1.8,1c-0.8,0.4-1.7,0.7-2.7,0.9c-1,0.2-2.1,0.4-3.4,0.4c-2.1,0-3.9-0.4-5.6-1.1
			c-1.7-0.7-3.1-1.7-4.2-2.9c-1.2-1.2-2.1-2.7-2.7-4.3c-0.6-1.6-0.9-3.3-0.9-5.2c0-2,0.3-3.8,1-5.5c0.7-1.7,1.6-3.2,2.8-4.4
			c1.2-1.2,2.6-2.2,4.2-2.9c1.6-0.7,3.4-1,5.3-1c1.6,0,3.1,0.2,4.4,0.6c1.3,0.4,2.4,0.9,3.4,1.5l-1.4,3.3c-0.7-0.5-1.6-1-2.7-1.4
			c-1-0.4-2.2-0.7-3.5-0.7c-1.3,0-2.5,0.3-3.7,0.8c-1.2,0.5-2.2,1.2-3.1,2.2c-0.9,0.9-1.6,2-2.1,3.3c-0.5,1.2-0.8,2.6-0.8,4
			c0,1.5,0.2,2.8,0.7,4.1c0.5,1.2,1.1,2.3,2,3.2c0.9,0.9,1.9,1.6,3.1,2.2c1.2,0.5,2.6,0.8,4.1,0.8c1.4,0,2.6-0.2,3.6-0.6
			c1.1-0.4,1.9-0.9,2.6-1.4L365.3,339.8z"/>
		<path class="st0" d="M368.7,341.8l11.7-27.9h0.2l11.7,27.9h-4.1l-8.7-22.3l2.6-1.7l-9.8,23.9H368.7z M375.5,331.7h10l1.2,3.1
			h-12.2L375.5,331.7z"/>
		<path class="st0" d="M404.5,315c1.4,0,2.6,0.2,3.8,0.5c1.1,0.4,2.2,0.9,3,1.6c0.9,0.7,1.5,1.6,2,2.6c0.5,1,0.7,2.2,0.7,3.6
			c0,1.1-0.2,2.1-0.5,3.1c-0.3,1-0.8,1.9-1.5,2.8s-1.6,1.5-2.8,2c-1.1,0.5-2.6,0.8-4.2,0.8h-4v9.9h-3.6V315H404.5z M404.8,328.5
			c1.1,0,1.9-0.2,2.7-0.5c0.7-0.3,1.3-0.7,1.6-1.2c0.4-0.5,0.7-1.1,0.9-1.6c0.2-0.6,0.3-1.1,0.3-1.7c0-0.5-0.1-1.1-0.3-1.7
			c-0.2-0.6-0.5-1.1-0.9-1.6c-0.4-0.5-0.9-0.9-1.6-1.2c-0.7-0.3-1.5-0.5-2.4-0.5h-4.2v10H404.8z M409.2,330.5l7,11.3h-4.1l-7.1-11.2
			L409.2,330.5z"/>
		<path class="st0" d="M421.8,315h17.4v3.4h-13.8v8.2h12.3v3.4h-12.3v8.3h14.3v3.4h-17.9V315z"/>
		<path class="st0" d="M464.8,315c2,0,3.6,0.3,5,1c1.4,0.7,2.5,1.6,3.2,2.8c0.8,1.2,1.1,2.7,1.1,4.5c0,1.1-0.2,2.1-0.5,3.1
			c-0.3,1-0.8,2-1.5,2.8s-1.6,1.5-2.8,2c-1.1,0.5-2.5,0.7-4.2,0.7h-4v9.9h-3.6V315H464.8z M465.2,328.5c1.1,0,1.9-0.2,2.6-0.5
			c0.7-0.3,1.2-0.8,1.6-1.3c0.4-0.5,0.7-1.1,0.9-1.7c0.2-0.6,0.3-1.1,0.3-1.6c0-0.5-0.1-1.1-0.3-1.7c-0.2-0.6-0.5-1.1-0.9-1.6
			c-0.4-0.5-0.9-0.9-1.6-1.2c-0.7-0.3-1.5-0.5-2.4-0.5h-4.2v10H465.2z"/>
		<path class="st0" d="M486.8,315c1.4,0,2.6,0.2,3.8,0.5c1.1,0.4,2.2,0.9,3,1.6c0.9,0.7,1.5,1.6,2,2.6c0.5,1,0.7,2.2,0.7,3.6
			c0,1.1-0.2,2.1-0.5,3.1c-0.3,1-0.8,1.9-1.5,2.8s-1.6,1.5-2.8,2c-1.1,0.5-2.6,0.8-4.2,0.8h-4v9.9h-3.6V315H486.8z M487.2,328.5
			c1.1,0,1.9-0.2,2.7-0.5c0.7-0.3,1.3-0.7,1.6-1.2c0.4-0.5,0.7-1.1,0.9-1.6c0.2-0.6,0.3-1.1,0.3-1.7c0-0.5-0.1-1.1-0.3-1.7
			c-0.2-0.6-0.5-1.1-0.9-1.6c-0.4-0.5-0.9-0.9-1.6-1.2c-0.7-0.3-1.5-0.5-2.4-0.5h-4.2v10H487.2z M491.6,330.5l7,11.3h-4.1l-7.1-11.2
			L491.6,330.5z"/>
		<path class="st0" d="M501.9,328.4c0-1.9,0.4-3.6,1.1-5.2c0.7-1.6,1.7-3.1,2.9-4.4c1.3-1.3,2.7-2.3,4.4-3c1.6-0.7,3.4-1.1,5.3-1.1
			c1.9,0,3.6,0.4,5.3,1.1c1.6,0.7,3.1,1.7,4.4,3c1.3,1.3,2.3,2.7,3,4.4c0.7,1.6,1.1,3.4,1.1,5.2c0,1.9-0.4,3.7-1.1,5.3
			c-0.7,1.7-1.7,3.1-3,4.4c-1.3,1.2-2.7,2.2-4.4,2.9c-1.6,0.7-3.4,1.1-5.3,1.1c-1.9,0-3.7-0.3-5.3-1c-1.6-0.7-3.1-1.7-4.4-2.9
			c-1.3-1.2-2.2-2.7-2.9-4.3C502.2,332.2,501.9,330.4,501.9,328.4z M505.6,328.5c0,1.4,0.3,2.7,0.8,3.9c0.5,1.2,1.2,2.3,2.2,3.2
			c0.9,0.9,2,1.7,3.2,2.2c1.2,0.5,2.5,0.8,3.9,0.8c1.4,0,2.7-0.3,3.9-0.8c1.2-0.5,2.3-1.3,3.1-2.2c0.9-0.9,1.6-2,2.1-3.2
			c0.5-1.2,0.8-2.6,0.8-4c0-1.4-0.3-2.7-0.8-4c-0.5-1.2-1.2-2.3-2.1-3.3s-2-1.7-3.2-2.2c-1.2-0.5-2.5-0.8-3.9-0.8
			c-1.4,0-2.7,0.3-3.9,0.8c-1.2,0.5-2.3,1.3-3.2,2.2c-0.9,0.9-1.6,2-2.1,3.3C505.8,325.7,505.6,327.1,505.6,328.5z"/>
		<path class="st0" d="M535.3,315h15.9v3.4h-12.3v8.6h10.8v3.4h-10.8v11.4h-3.6V315z"/>
		<path class="st0" d="M557.2,315h17.4v3.4h-13.8v8.2h12.3v3.4h-12.3v8.3h14.3v3.4h-17.9V315z"/>
		<path class="st0" d="M595.2,319.8c-0.9-0.5-1.9-0.9-3-1.2c-1.1-0.3-2.1-0.5-3.2-0.5c-1.4,0-2.6,0.3-3.4,1
			c-0.9,0.7-1.3,1.6-1.3,2.7c0,0.8,0.3,1.6,0.8,2.1c0.5,0.6,1.3,1.1,2.1,1.5c0.9,0.4,1.8,0.8,2.8,1.2c0.8,0.3,1.7,0.7,2.5,1.1
			c0.8,0.4,1.5,0.9,2.2,1.5c0.7,0.6,1.2,1.3,1.6,2.2c0.4,0.9,0.6,1.9,0.6,3.2c0,1.4-0.4,2.7-1.1,3.9c-0.7,1.2-1.7,2.1-3,2.7
			c-1.3,0.7-2.9,1-4.7,1c-1.2,0-2.3-0.1-3.4-0.4c-1.1-0.3-2.1-0.6-3-1.1c-0.9-0.4-1.7-0.9-2.4-1.4l1.6-2.8c0.6,0.4,1.3,0.8,2,1.2
			c0.8,0.4,1.6,0.7,2.4,0.9c0.8,0.2,1.7,0.4,2.4,0.4c0.8,0,1.7-0.2,2.5-0.5c0.8-0.3,1.5-0.8,2.1-1.4c0.5-0.6,0.8-1.5,0.8-2.6
			c0-0.9-0.2-1.7-0.7-2.3c-0.5-0.6-1.1-1.1-1.9-1.6c-0.8-0.4-1.6-0.8-2.5-1.2c-0.8-0.3-1.7-0.7-2.6-1.1c-0.9-0.4-1.7-0.9-2.4-1.4
			c-0.7-0.6-1.3-1.2-1.8-2.1c-0.4-0.8-0.7-1.8-0.7-3c0-1.4,0.3-2.6,1-3.7c0.7-1.1,1.6-1.9,2.8-2.5s2.5-0.9,4.1-1
			c1.7,0,3.3,0.2,4.6,0.6c1.3,0.4,2.5,0.9,3.5,1.6L595.2,319.8z"/>
		<path class="st0" d="M616.8,319.8c-0.9-0.5-1.9-0.9-3-1.2c-1.1-0.3-2.1-0.5-3.2-0.5c-1.4,0-2.6,0.3-3.4,1
			c-0.9,0.7-1.3,1.6-1.3,2.7c0,0.8,0.3,1.6,0.8,2.1c0.5,0.6,1.3,1.1,2.1,1.5c0.9,0.4,1.8,0.8,2.8,1.2c0.8,0.3,1.7,0.7,2.5,1.1
			c0.8,0.4,1.5,0.9,2.2,1.5s1.2,1.3,1.6,2.2c0.4,0.9,0.6,1.9,0.6,3.2c0,1.4-0.4,2.7-1.1,3.9c-0.7,1.2-1.7,2.1-3,2.7
			c-1.3,0.7-2.9,1-4.7,1c-1.2,0-2.3-0.1-3.4-0.4c-1.1-0.3-2.1-0.6-3-1.1c-0.9-0.4-1.7-0.9-2.4-1.4l1.6-2.8c0.6,0.4,1.3,0.8,2,1.2
			c0.8,0.4,1.6,0.7,2.4,0.9c0.8,0.2,1.7,0.4,2.4,0.4c0.8,0,1.7-0.2,2.5-0.5c0.8-0.3,1.5-0.8,2.1-1.4c0.5-0.6,0.8-1.5,0.8-2.6
			c0-0.9-0.2-1.7-0.7-2.3c-0.5-0.6-1.1-1.1-1.9-1.6c-0.8-0.4-1.6-0.8-2.5-1.2c-0.8-0.3-1.7-0.7-2.6-1.1c-0.9-0.4-1.7-0.9-2.4-1.4
			c-0.7-0.6-1.3-1.2-1.8-2.1c-0.4-0.8-0.7-1.8-0.7-3c0-1.4,0.3-2.6,1-3.7c0.7-1.1,1.6-1.9,2.8-2.5s2.5-0.9,4.1-1
			c1.7,0,3.3,0.2,4.6,0.6c1.3,0.4,2.5,0.9,3.5,1.6L616.8,319.8z"/>
		<path class="st0" d="M624.5,315h3.6v26.8h-3.6V315z"/>
		<path class="st0" d="M634.1,328.4c0-1.9,0.4-3.6,1.1-5.2c0.7-1.6,1.7-3.1,2.9-4.4s2.7-2.3,4.4-3c1.6-0.7,3.4-1.1,5.3-1.1
			c1.9,0,3.6,0.4,5.3,1.1c1.6,0.7,3.1,1.7,4.4,3c1.3,1.3,2.3,2.7,3,4.4c0.7,1.6,1.1,3.4,1.1,5.2c0,1.9-0.4,3.7-1.1,5.3
			c-0.7,1.7-1.7,3.1-3,4.4c-1.3,1.2-2.7,2.2-4.4,2.9c-1.6,0.7-3.4,1.1-5.3,1.1c-1.9,0-3.7-0.3-5.3-1c-1.6-0.7-3.1-1.7-4.4-2.9
			c-1.3-1.2-2.2-2.7-2.9-4.3C634.5,332.2,634.1,330.4,634.1,328.4z M637.8,328.5c0,1.4,0.3,2.7,0.8,3.9c0.5,1.2,1.2,2.3,2.2,3.2
			c0.9,0.9,2,1.7,3.2,2.2c1.2,0.5,2.5,0.8,3.9,0.8c1.4,0,2.7-0.3,3.9-0.8c1.2-0.5,2.3-1.3,3.1-2.2c0.9-0.9,1.6-2,2.1-3.2
			c0.5-1.2,0.8-2.6,0.8-4c0-1.4-0.3-2.7-0.8-4c-0.5-1.2-1.2-2.3-2.1-3.3c-0.9-0.9-2-1.7-3.2-2.2c-1.2-0.5-2.5-0.8-3.9-0.8
			c-1.4,0-2.7,0.3-3.9,0.8c-1.2,0.5-2.3,1.3-3.2,2.2c-0.9,0.9-1.6,2-2.1,3.3C638.1,325.7,637.8,327.1,637.8,328.5z"/>
		<path class="st0" d="M690.8,342.7l-20.7-21l1,0.3l0.1,19.9h-3.6v-27.6h0.2l20.5,21.1l-0.9-0.2l-0.1-20.1h3.6v27.7H690.8z"/>
		<path class="st0" d="M695.9,341.8l11.7-27.9h0.2l11.7,27.9h-4.1l-8.7-22.3l2.6-1.7l-9.8,23.9H695.9z M702.8,331.7h10l1.2,3.1
			h-12.2L702.8,331.7z"/>
		<path class="st0" d="M724.6,315h3.6v23.4h13.6v3.4h-17.2V315z"/>
		<path class="st0" d="M761.5,319.8c-0.9-0.5-1.9-0.9-3-1.2c-1.1-0.3-2.1-0.5-3.2-0.5c-1.4,0-2.6,0.3-3.4,1
			c-0.9,0.7-1.3,1.6-1.3,2.7c0,0.8,0.3,1.6,0.8,2.1c0.5,0.6,1.3,1.1,2.1,1.5c0.9,0.4,1.8,0.8,2.8,1.2c0.8,0.3,1.7,0.7,2.5,1.1
			c0.8,0.4,1.5,0.9,2.2,1.5s1.2,1.3,1.6,2.2c0.4,0.9,0.6,1.9,0.6,3.2c0,1.4-0.4,2.7-1.1,3.9s-1.7,2.1-3,2.7c-1.3,0.7-2.9,1-4.7,1
			c-1.2,0-2.3-0.1-3.4-0.4c-1.1-0.3-2.1-0.6-3-1.1c-0.9-0.4-1.7-0.9-2.4-1.4l1.6-2.8c0.6,0.4,1.3,0.8,2,1.2c0.8,0.4,1.6,0.7,2.4,0.9
			c0.8,0.2,1.7,0.4,2.4,0.4c0.8,0,1.7-0.2,2.5-0.5c0.8-0.3,1.5-0.8,2.1-1.4c0.5-0.6,0.8-1.5,0.8-2.6c0-0.9-0.2-1.7-0.7-2.3
			c-0.5-0.6-1.1-1.1-1.9-1.6c-0.8-0.4-1.6-0.8-2.5-1.2c-0.8-0.3-1.7-0.7-2.6-1.1c-0.9-0.4-1.7-0.9-2.4-1.4c-0.7-0.6-1.3-1.2-1.8-2.1
			c-0.4-0.8-0.7-1.8-0.7-3c0-1.4,0.3-2.6,1-3.7c0.7-1.1,1.6-1.9,2.8-2.5s2.5-0.9,4.1-1c1.7,0,3.3,0.2,4.6,0.6
			c1.3,0.4,2.5,0.9,3.5,1.6L761.5,319.8z"/>
	</g>
	<g>
		<path class="st0" d="M778.5,302.3c0,0-1.7,0-4.7,0.1c-2.1,0-4.9,0.1-8.2,0.1c-23.9,0.2-581.7,0.6-584.7-0.2
			c-1.9-0.5-3.1-2.4-4.1-4.9c-0.3,3.8-0.5,8.3-0.8,12.9c-1.2,18.7-2.5,40.4-4.7,42.9c-1.4,1.6-2.9,1.8-4.5,0.4
			c-2.5-2.1-3.7-41.3-4.8-78.8c-0.5-15.4-0.9-30.4-1.3-42.2c-1,8.7-2.1,19.1-3.2,29.4c-2.9,26.6-5.8,53.2-7.5,55.7v0
			c-0.7,0.9-1.5,1.4-2.3,1.4c-0.6,0-1.3-0.3-2-0.8c-1.1-0.9-1.9-3.3-2.5-6.4c-0.6-3.1-1.1-6.8-1.5-10.2l0-0.4l-0.2,0.5
			c-2.4,5.5-4,8.2-6.5,8.1c-2.8-0.1-3.8-3.1-4.5-9.4c-0.3-2.3-0.6-5.4-0.9-8.4c-0.1-0.9-0.1-1.7-0.1-2.6
			c-3.2,5.9-7.5,12.5-11.9,12.5H92.1v-5.8h25.5c1.9,0,6.2-8.2,8.9-13.4c0.7-1.3,1.2-2.4,1.8-3.4v0c1-1.8,2.4-2.1,4.1-1.2l0,0
			c1.8,1,2.4,6.9,3,13.3c0.2,2.5,0.5,5.1,0.8,7.8l1-2.3l1-2.5c1.7-3.8,2.8-5.7,5.2-5.3c2.3,0.4,2.9,2.4,3.5,6.5
			c0.2,1.4,0.4,2.9,0.6,4.4c1.2-10.1,2.7-24.5,4.3-38.8c2.9-27,5.9-54,7.7-56.1v0c1.3-1.5,2.7-1.6,4.2-0.3v0h0c1,1,1.8,9.9,2.5,22.7
			c0.6,12.8,1.2,29.7,1.7,46.9c0.5,17.3,1.1,34.9,1.6,48.7c0.3-4.4,0.5-9,0.8-13.4c0.9-14.2,1.7-26.8,2.8-28.5
			c0.8-1.1,1.6-1.7,2.6-1.7c0.6,0,1.2,0.3,1.9,0.7c1.6,1,2.1,3.9,2.9,7.4c0.8,3.8,1.8,8.7,2.1,8.7c2.6,0.7,559.5,0.3,583.1,0
			c3.3,0,6.1-0.1,8.2-0.1c2.9,0,4.6-0.1,4.6-0.1L778.5,302.3z"/>
		<path class="st0" d="M778.5,289.1c5.7,0,10.3,4.6,10.3,10.3c0,5.7-4.6,10.3-10.3,10.3s-10.3-4.6-10.3-10.3
			C768.2,293.7,772.8,289.1,778.5,289.1L778.5,289.1z"/>
		<path class="st1" d="M778.5,293.9c3,0,5.5,2.5,5.5,5.5c0,3-2.5,5.5-5.5,5.5c-3,0-5.5-2.5-5.5-5.5
			C773,296.4,775.4,293.9,778.5,293.9L778.5,293.9z"/>
	</g>
</g>
</svg>
